<?xml version="1.0" standalone="no"?>
<!DOCTYPE svg PUBLIC "-//W3C//DTD SVG 20010904//EN"
 "http://www.w3.org/TR/2001/REC-SVG-20010904/DTD/svg10.dtd">
<svg version="1.0" xmlns="http://www.w3.org/2000/svg"
 width="857.000000pt" height="857.000000pt" viewBox="0 0 857.000000 857.000000"
 preserveAspectRatio="xMidYMid meet">
<metadata>
Created by potrace 1.11, written by Peter Selinger 2001-2013
</metadata>
<g transform="translate(0.000000,857.000000) scale(0.100000,-0.100000)"
fill="#000000" stroke="none">
<path d="M4182 8211 c-56 -36 -181 -118 -278 -181 -98 -63 -233 -151 -301
-195 -67 -44 -199 -129 -293 -190 -94 -60 -253 -164 -355 -230 -301 -195 -883
-573 -1148 -745 -98 -63 -219 -142 -269 -175 l-91 -60 -129 -325 c-71 -179
-135 -338 -142 -355 -8 -16 -52 -127 -99 -245 -47 -118 -91 -228 -98 -245 -7
-16 -13 -34 -15 -40 -2 -8 -121 -303 -149 -370 -4 -11 -9 -24 -11 -30 -2 -9
-286 -716 -309 -770 -4 -11 -9 -24 -11 -30 -3 -11 -88 -222 -109 -270 -7 -16
-27 -66 -44 -110 l-31 -80 0 -212 0 -213 284 0 c218 0 285 -3 288 -12 2 -7 4
-662 3 -1455 l0 -1443 1247 0 1246 0 1 1478 c0 812 0 1485 1 1495 0 16 50 17
913 17 l914 0 1 -1472 c0 -810 1 -1483 1 -1495 l1 -23 629 0 628 0 13 62 c17
83 16 77 29 125 57 208 148 419 279 643 47 81 377 585 392 600 3 3 10 13 15
22 6 10 94 143 197 295 214 319 243 372 274 500 11 45 14 264 4 308 -4 22 -14
67 -20 100 -26 129 -126 395 -149 395 -7 0 -127 -128 -201 -214 -159 -184
-335 -300 -543 -357 -84 -24 -129 -53 -159 -102 -137 -226 -215 -324 -276
-345 -55 -19 -149 -7 -247 31 -364 141 -435 232 -374 478 26 102 70 198 157
339 72 117 82 134 244 380 149 228 144 220 152 255 12 56 14 70 21 165 8 124
14 178 20 215 22 122 95 247 218 377 84 89 174 250 191 341 2 15 7 35 10 45
10 32 15 140 15 360 1 163 4 212 14 212 6 0 48 -29 92 -65 44 -35 83 -64 86
-65 4 0 5 15 3 33 -9 84 -12 277 -5 277 14 0 91 -59 201 -154 58 -50 107 -93
110 -96 25 -29 162 -139 180 -145 12 -4 58 -1 102 5 79 13 80 13 74 39 -3 14
-106 278 -229 586 -209 520 -227 562 -258 582 -19 13 -38 26 -44 31 -5 4 -17
11 -25 15 -8 3 -76 47 -150 96 -74 50 -164 109 -200 131 -83 52 -292 187 -305
198 -5 4 -111 72 -235 152 -124 79 -227 147 -230 151 -3 3 -12 8 -20 12 -8 4
-61 37 -117 74 -57 38 -151 99 -210 138 -250 161 -376 244 -511 332 -78 51
-145 93 -148 93 -3 0 -10 5 -17 11 -7 6 -55 38 -107 71 -52 34 -144 94 -205
133 -60 40 -149 97 -196 127 l-86 55 -101 -66z m835 -2184 c4 -5 8 -281 8
-613 l0 -604 -742 0 -743 0 0 613 0 612 734 0 c404 0 738 -4 743 -8z"/>
<path d="M3870 2835 c0 -3 20 -42 44 -87 23 -46 72 -139 108 -208 36 -69 97
-186 136 -260 39 -74 81 -157 95 -183 19 -38 26 -45 35 -35 11 14 36 62 250
478 69 135 131 254 139 265 7 11 13 23 13 27 0 5 -184 8 -410 8 -225 0 -410
-2 -410 -5z"/>
<path d="M4784 2188 c-15 -29 -55 -107 -89 -173 -34 -66 -93 -179 -131 -251
l-68 -132 43 -83 c24 -46 69 -133 101 -194 32 -60 83 -159 115 -220 31 -60 58
-111 60 -113 1 -1 2 272 2 608 0 335 -1 610 -3 610 -2 0 -16 -24 -30 -52z"/>
<path d="M3747 1629 c0 -330 3 -602 5 -604 2 -2 41 69 86 158 46 89 117 226
157 305 l74 143 -56 107 c-31 59 -88 168 -127 242 -39 74 -85 161 -101 192
-17 32 -32 58 -35 58 -3 0 -4 -270 -3 -601z"/>
<path d="M4276 1201 c-7 -11 -90 -171 -221 -426 -48 -93 -109 -212 -136 -263
l-49 -92 410 0 c275 0 410 3 410 10 0 6 -15 39 -34 73 -18 34 -70 134 -116
222 -152 294 -248 477 -254 483 -2 2 -7 -1 -10 -7z"/>
</g>
</svg>
